<mxfile host="app.diagrams.net" modified="2024-04-17T00:04:20.969Z" agent="Mozilla/5.0 (Windows NT 10.0; Win64; x64) AppleWebKit/537.36 (KHTML, like Gecko) Chrome/123.0.0.0 Safari/537.36" etag="QJMZTwh1lvnjK0Me9_H6" version="24.2.5" type="device">
  <diagram name="Page-1" id="b520641d-4fe3-3701-9064-5fc419738815">
    <mxGraphModel dx="1270" dy="558" grid="1" gridSize="10" guides="1" tooltips="1" connect="1" arrows="1" fold="1" page="1" pageScale="1" pageWidth="1100" pageHeight="850" background="none" math="0" shadow="0">
      <root>
        <mxCell id="0" />
        <mxCell id="1" parent="0" />
        <mxCell id="21ea969265ad0168-6" value="0" style="swimlane;html=1;fontStyle=0;childLayout=stackLayout;horizontal=1;startSize=36;fillColor=#e0e0e0;horizontalStack=0;resizeParent=1;resizeLast=0;collapsible=1;marginBottom=0;swimlaneFillColor=#ffffff;align=center;rounded=1;shadow=0;comic=0;labelBackgroundColor=none;strokeWidth=1;fontFamily=Verdana;fontSize=12;arcSize=19;" parent="1" vertex="1">
          <mxGeometry x="430" y="210" width="160" height="110" as="geometry" />
        </mxCell>
        <mxCell id="EfbuD73XCSN-6ZOiOaUG-2" value="SheSecure" style="text;html=1;align=center;verticalAlign=middle;whiteSpace=wrap;rounded=0;" vertex="1" parent="21ea969265ad0168-6">
          <mxGeometry y="36" width="160" height="24.38" as="geometry" />
        </mxCell>
        <mxCell id="EfbuD73XCSN-6ZOiOaUG-4" value="Admin" style="rounded=0;whiteSpace=wrap;html=1;" vertex="1" parent="1">
          <mxGeometry x="710" y="210" width="160" height="100" as="geometry" />
        </mxCell>
        <mxCell id="EfbuD73XCSN-6ZOiOaUG-18" style="edgeStyle=orthogonalEdgeStyle;rounded=0;orthogonalLoop=1;jettySize=auto;html=1;exitX=0.5;exitY=1;exitDx=0;exitDy=0;entryX=1;entryY=0.75;entryDx=0;entryDy=0;" edge="1" parent="1" source="EfbuD73XCSN-6ZOiOaUG-5" target="21ea969265ad0168-6">
          <mxGeometry relative="1" as="geometry" />
        </mxCell>
        <mxCell id="EfbuD73XCSN-6ZOiOaUG-5" value="Admin" style="rounded=0;whiteSpace=wrap;html=1;" vertex="1" parent="1">
          <mxGeometry x="720" y="220" width="160" height="100" as="geometry" />
        </mxCell>
        <mxCell id="EfbuD73XCSN-6ZOiOaUG-6" value="Admin" style="rounded=0;whiteSpace=wrap;html=1;fontStyle=1" vertex="1" parent="1">
          <mxGeometry x="110" y="120" width="160" height="100" as="geometry" />
        </mxCell>
        <mxCell id="EfbuD73XCSN-6ZOiOaUG-13" style="edgeStyle=orthogonalEdgeStyle;rounded=0;orthogonalLoop=1;jettySize=auto;html=1;exitX=1;exitY=0.5;exitDx=0;exitDy=0;entryX=0.5;entryY=0;entryDx=0;entryDy=0;" edge="1" parent="1" source="EfbuD73XCSN-6ZOiOaUG-7" target="21ea969265ad0168-6">
          <mxGeometry relative="1" as="geometry" />
        </mxCell>
        <mxCell id="EfbuD73XCSN-6ZOiOaUG-7" value="Woman" style="rounded=0;whiteSpace=wrap;html=1;" vertex="1" parent="1">
          <mxGeometry x="120" y="130" width="160" height="100" as="geometry" />
        </mxCell>
        <mxCell id="EfbuD73XCSN-6ZOiOaUG-8" value="Admin" style="rounded=0;whiteSpace=wrap;html=1;" vertex="1" parent="1">
          <mxGeometry x="105" y="315" width="160" height="100" as="geometry" />
        </mxCell>
        <mxCell id="EfbuD73XCSN-6ZOiOaUG-9" value="Security Enforcement Agency/ Trusted Contacts" style="rounded=0;whiteSpace=wrap;html=1;" vertex="1" parent="1">
          <mxGeometry x="115" y="325" width="160" height="100" as="geometry" />
        </mxCell>
        <mxCell id="EfbuD73XCSN-6ZOiOaUG-12" value="" style="endArrow=classic;html=1;rounded=0;exitX=1;exitY=0.5;exitDx=0;exitDy=0;entryX=0.25;entryY=1;entryDx=0;entryDy=0;" edge="1" parent="1" source="EfbuD73XCSN-6ZOiOaUG-9" target="21ea969265ad0168-6">
          <mxGeometry width="50" height="50" relative="1" as="geometry">
            <mxPoint x="340" y="500" as="sourcePoint" />
            <mxPoint x="390" y="450" as="targetPoint" />
            <Array as="points">
              <mxPoint x="470" y="375" />
            </Array>
          </mxGeometry>
        </mxCell>
        <mxCell id="EfbuD73XCSN-6ZOiOaUG-16" value="" style="endArrow=classic;html=1;rounded=0;exitX=0.5;exitY=1;exitDx=0;exitDy=0;entryX=0.5;entryY=1;entryDx=0;entryDy=0;" edge="1" parent="1" source="21ea969265ad0168-6" target="EfbuD73XCSN-6ZOiOaUG-9">
          <mxGeometry width="50" height="50" relative="1" as="geometry">
            <mxPoint x="520" y="320" as="sourcePoint" />
            <mxPoint x="195" y="430" as="targetPoint" />
            <Array as="points">
              <mxPoint x="510" y="480" />
              <mxPoint x="195" y="480" />
            </Array>
          </mxGeometry>
        </mxCell>
        <mxCell id="EfbuD73XCSN-6ZOiOaUG-17" value="" style="endArrow=classic;html=1;rounded=0;exitX=1;exitY=1;exitDx=0;exitDy=0;" edge="1" parent="1" source="EfbuD73XCSN-6ZOiOaUG-2">
          <mxGeometry width="50" height="50" relative="1" as="geometry">
            <mxPoint x="420" y="360" as="sourcePoint" />
            <mxPoint x="710" y="270" as="targetPoint" />
          </mxGeometry>
        </mxCell>
        <mxCell id="EfbuD73XCSN-6ZOiOaUG-19" style="edgeStyle=orthogonalEdgeStyle;rounded=0;orthogonalLoop=1;jettySize=auto;html=1;exitX=0;exitY=1;exitDx=0;exitDy=0;" edge="1" parent="1" source="EfbuD73XCSN-6ZOiOaUG-2" target="EfbuD73XCSN-6ZOiOaUG-7">
          <mxGeometry relative="1" as="geometry" />
        </mxCell>
        <mxCell id="EfbuD73XCSN-6ZOiOaUG-21" value="Text" style="text;html=1;align=center;verticalAlign=middle;whiteSpace=wrap;rounded=0;" vertex="1" parent="1">
          <mxGeometry x="300" y="500" width="60" height="30" as="geometry" />
        </mxCell>
        <mxCell id="EfbuD73XCSN-6ZOiOaUG-23" value="Text" style="text;html=1;align=center;verticalAlign=middle;whiteSpace=wrap;rounded=0;" vertex="1" parent="1">
          <mxGeometry x="310" y="325" width="60" height="30" as="geometry" />
        </mxCell>
        <mxCell id="EfbuD73XCSN-6ZOiOaUG-24" value="Text" style="text;html=1;align=center;verticalAlign=middle;whiteSpace=wrap;rounded=0;" vertex="1" parent="1">
          <mxGeometry x="300" y="245" width="60" height="30" as="geometry" />
        </mxCell>
        <mxCell id="EfbuD73XCSN-6ZOiOaUG-25" value="Text" style="text;html=1;align=center;verticalAlign=middle;whiteSpace=wrap;rounded=0;" vertex="1" parent="1">
          <mxGeometry x="310" y="140" width="60" height="30" as="geometry" />
        </mxCell>
        <mxCell id="EfbuD73XCSN-6ZOiOaUG-26" value="Text" style="text;html=1;align=center;verticalAlign=middle;whiteSpace=wrap;rounded=0;" vertex="1" parent="1">
          <mxGeometry x="600" y="230" width="60" height="30" as="geometry" />
        </mxCell>
        <mxCell id="EfbuD73XCSN-6ZOiOaUG-27" value="Text" style="text;html=1;align=center;verticalAlign=middle;whiteSpace=wrap;rounded=0;" vertex="1" parent="1">
          <mxGeometry x="690" y="355" width="60" height="30" as="geometry" />
        </mxCell>
      </root>
    </mxGraphModel>
  </diagram>
</mxfile>
